<svg width="368" height="68" viewBox="0 0 368 68" fill="none" xmlns="http://www.w3.org/2000/svg">
<path d="M70.3294 56.144C69.9774 56.144 69.4814 56.096 68.8414 56C68.2014 55.936 67.6254 55.744 67.1134 55.424C66.6014 55.104 66.3454 54.624 66.3454 53.984C66.3454 53.632 66.4414 53.312 66.6334 53.024C66.7934 52.864 66.9374 52.768 67.0654 52.736C67.1614 52.736 67.1934 52.816 67.1614 52.976C67.0334 53.456 67.1934 53.904 67.6414 54.32C68.0574 54.768 68.4894 55.056 68.9374 55.184C69.4494 55.312 69.9934 55.376 70.5694 55.376C71.8814 55.376 73.0814 55.04 74.1694 54.368C75.2574 53.728 76.2334 52.896 77.0974 51.872C77.9934 50.88 78.7934 49.872 79.4974 48.848C81.1294 46.448 82.6014 43.984 83.9134 41.456C85.2254 38.896 86.5534 36.352 87.8974 33.824C89.2414 31.296 90.7454 28.864 92.4094 26.528C92.9534 25.76 93.6254 24.896 94.4254 23.936C95.2254 22.944 96.1054 22 97.0654 21.104C98.0254 20.208 99.0174 19.504 100.041 18.992C99.6254 18.992 99.2734 18.976 98.9854 18.944C98.6974 18.912 98.2174 18.88 97.5454 18.848C96.2974 18.752 94.8574 18.704 93.2254 18.704C92.3294 18.704 91.4494 18.72 90.5854 18.752C89.7534 18.752 88.9694 18.784 88.2334 18.848C85.6094 19.008 82.9854 19.504 80.3614 20.336C77.7694 21.168 75.5454 22.432 73.6894 24.128C72.6014 25.12 71.7054 26.24 71.0014 27.488C70.2974 28.736 69.9454 29.968 69.9454 31.184C69.9454 32.56 70.3134 33.552 71.0494 34.16C71.8174 34.736 72.7134 35.024 73.7374 35.024C74.5374 35.024 75.3374 34.88 76.1374 34.592C77.7054 34.048 78.9854 33.088 79.9774 31.712C81.0014 30.304 81.4494 28.736 81.3214 27.008C81.2894 26.72 81.2254 26.432 81.1294 26.144C81.0334 25.856 80.9054 25.664 80.7454 25.568C80.6174 25.472 80.5534 25.376 80.5534 25.28C80.5854 25.184 80.6814 25.136 80.8414 25.136C81.5454 25.2 82.0254 25.6 82.2814 26.336C82.5694 27.04 82.7134 27.712 82.7134 28.352C82.7134 29.344 82.4574 30.304 81.9454 31.232C81.4334 32.128 80.7614 32.928 79.9294 33.632C79.1294 34.304 78.2654 34.816 77.3374 35.168C76.3454 35.552 75.2894 35.744 74.1694 35.744C72.6974 35.744 71.4014 35.328 70.2814 34.496C69.1934 33.664 68.6494 32.304 68.6494 30.416C68.6494 29.008 68.9854 27.68 69.6574 26.432C70.3614 25.184 71.2094 24.064 72.2014 23.072C74.3454 20.96 76.8254 19.52 79.6414 18.752C82.4894 17.984 85.3854 17.6 88.3294 17.6C90.6334 17.6 92.9374 17.728 95.2414 17.984C97.5454 18.208 99.8334 18.32 102.105 18.32H103.353C103.513 18.352 103.657 18.416 103.785 18.512C103.945 18.576 103.993 18.688 103.929 18.848C103.929 19.04 103.817 19.136 103.593 19.136C103.145 19.136 102.793 19.2 102.537 19.328C101.865 19.552 101.289 19.968 100.809 20.576C100.329 21.152 99.8654 21.856 99.4174 22.688C98.8094 23.776 98.4414 25.056 98.3134 26.528C98.2174 27.968 98.1534 29.296 98.1214 30.512C98.0894 32.208 98.0254 33.968 97.9294 35.792C97.8654 37.616 97.5934 39.408 97.1134 41.168C96.7614 42.544 96.2334 43.84 95.5294 45.056C94.8574 46.272 93.9774 47.376 92.8894 48.368C93.7214 48.048 94.5534 47.44 95.3854 46.544C96.2174 45.648 97.0014 44.672 97.7374 43.616C98.5054 42.56 99.1294 41.664 99.6094 40.928C100.985 38.816 102.425 36.496 103.929 33.968C105.465 31.44 107.065 28.944 108.729 26.48C110.393 23.984 112.121 21.776 113.913 19.856C115.481 18.16 117.017 16.928 118.521 16.16C120.057 15.392 121.449 15.008 122.697 15.008C123.785 15.008 124.729 15.28 125.529 15.824C126.329 16.336 126.889 17.072 127.209 18.032C127.209 18.064 127.209 18.096 127.209 18.128C127.241 18.128 127.257 18.144 127.257 18.176C127.257 18.4 127.145 18.528 126.921 18.56C126.697 18.592 126.553 18.56 126.489 18.464C126.201 17.152 125.369 16.496 123.993 16.496C123.097 16.496 121.993 16.848 120.681 17.552C119.369 18.256 117.881 19.408 116.217 21.008C114.489 22.672 112.777 24.64 111.081 26.912C109.385 29.184 107.721 31.52 106.089 33.92C104.489 36.32 102.889 38.576 101.289 40.688C100.713 41.456 99.9774 42.384 99.0814 43.472C98.2174 44.56 97.2574 45.648 96.2014 46.736C95.1454 47.792 94.0734 48.672 92.9854 49.376C91.8974 50.048 90.8574 50.352 89.8654 50.288C89.6734 50.288 89.5614 50.224 89.5294 50.096C89.5294 49.968 89.6094 49.856 89.7694 49.76C90.8574 48.992 91.7374 47.968 92.4094 46.688C93.0814 45.408 93.6254 44.016 94.0414 42.512C94.5854 40.432 94.9374 38.32 95.0974 36.176C95.2894 34.032 95.5294 31.888 95.8174 29.744C95.9774 28.752 96.1694 27.712 96.3934 26.624C96.6494 25.504 97.0334 24.496 97.5454 23.6C97.9614 22.864 98.5374 22.064 99.2734 21.2C100.009 20.336 100.825 19.712 101.721 19.328C101.177 19.2 100.553 19.392 99.8494 19.904C99.1774 20.416 98.5054 21.088 97.8334 21.92C97.1614 22.72 96.5534 23.504 96.0094 24.272C95.4974 25.04 95.1294 25.6 94.9054 25.952C93.3694 28.384 91.9614 30.928 90.6814 33.584C89.4334 36.24 88.1534 38.864 86.8414 41.456C85.5294 44.048 84.0094 46.496 82.2814 48.8C81.3534 50.048 80.2974 51.232 79.1134 52.352C77.9294 53.504 76.6654 54.4 75.3214 55.04C74.5214 55.456 73.6894 55.744 72.8254 55.904C71.9934 56.064 71.1614 56.144 70.3294 56.144ZM109.257 52.448C108.041 52.448 107.065 52.064 106.329 51.296C105.625 50.528 105.273 49.392 105.273 47.888C105.305 46.384 105.561 44.832 106.041 43.232C106.553 41.632 107.193 40.048 107.961 38.48C108.761 36.88 109.577 35.36 110.409 33.92C112.297 30.688 114.185 27.824 116.073 25.328C117.993 22.832 119.545 20.736 120.729 19.04C120.825 18.88 121.001 18.816 121.257 18.848C121.513 18.848 121.577 18.928 121.449 19.088C120.169 20.752 118.873 22.8 117.561 25.232C116.281 27.632 114.953 30.224 113.577 33.008C113.353 33.488 113.001 34.272 112.521 35.36C112.073 36.416 111.577 37.632 111.033 39.008C110.521 40.384 110.025 41.76 109.545 43.136C109.065 44.48 108.697 45.68 108.441 46.736C108.345 47.152 108.265 47.552 108.201 47.936C108.137 48.288 108.105 48.64 108.105 48.992C108.105 49.76 108.265 50.368 108.585 50.816C108.937 51.296 109.465 51.536 110.169 51.536C110.905 51.536 111.689 51.184 112.521 50.48C113.353 49.808 114.169 48.976 114.969 47.984C115.673 47.152 116.313 46.272 116.889 45.344C117.497 44.416 117.993 43.584 118.377 42.848C118.537 42.656 118.649 42.56 118.713 42.56C118.809 42.56 118.857 42.64 118.857 42.8C118.857 42.992 118.793 43.216 118.665 43.472C118.281 44.208 117.769 45.072 117.129 46.064C116.489 47.024 115.769 47.952 114.969 48.848C114.073 49.84 113.129 50.688 112.137 51.392C111.145 52.096 110.185 52.448 109.257 52.448ZM130.124 63.776C129.644 63.52 129.292 63.2 129.068 62.816C128.876 62.432 128.78 62.048 128.78 61.664C128.78 61.184 128.892 60.816 129.116 60.56C129.244 60.4 129.372 60.304 129.5 60.272C129.66 60.272 129.708 60.352 129.644 60.512C129.548 61.088 129.772 61.632 130.316 62.144C130.892 62.688 131.42 63.04 131.9 63.2C132.476 63.36 133.004 63.44 133.484 63.44C133.964 63.44 134.428 63.376 134.876 63.248C135.356 63.152 135.804 63.04 136.22 62.912C137.468 62.432 138.7 61.488 139.916 60.08C141.132 58.672 142.252 57.088 143.276 55.328C144.62 53.088 145.932 50.544 147.212 47.696C148.492 44.816 149.852 42.016 151.292 39.296C149.404 41.824 147.388 44.064 145.244 46.016C143.132 47.968 140.988 49.424 138.812 50.384C137.884 50.8 136.876 51.12 135.788 51.344C134.732 51.6 133.66 51.728 132.572 51.728C131.484 51.728 130.428 51.584 129.404 51.296C128.412 51.008 127.516 50.56 126.716 49.952C125.692 49.12 124.972 48.08 124.556 46.832C124.14 45.552 123.932 44.24 123.932 42.896C123.932 42.16 123.98 41.44 124.076 40.736C124.204 40 124.332 39.312 124.46 38.672C124.972 36.592 125.804 34.544 126.956 32.528C128.108 30.512 129.5 28.608 131.132 26.816C132.764 24.992 134.588 23.392 136.604 22.016C138.94 20.416 141.404 19.152 143.996 18.224C146.62 17.296 149.34 16.832 152.156 16.832C152.956 16.832 153.724 16.88 154.46 16.976C155.228 17.072 155.916 17.232 156.524 17.456C157.548 17.808 158.284 18.288 158.732 18.896C159.18 19.504 159.404 20.176 159.404 20.912C159.404 22.096 158.908 23.28 157.916 24.464C156.828 25.744 155.5 26.64 153.932 27.152C152.396 27.632 151.004 27.872 149.756 27.872C149.468 27.872 149.196 27.872 148.94 27.872C148.716 27.84 148.492 27.808 148.268 27.776C147.948 27.744 147.788 27.632 147.788 27.44C147.788 27.216 147.98 27.136 148.364 27.2C148.588 27.232 148.828 27.264 149.084 27.296C149.34 27.296 149.596 27.296 149.852 27.296C151.036 27.296 152.284 27.056 153.596 26.576C154.94 26.064 156.14 25.136 157.196 23.792C157.74 23.088 158.012 22.32 158.012 21.488C158.012 20.912 157.852 20.368 157.532 19.856C157.244 19.344 156.732 18.928 155.996 18.608C154.908 18.096 153.596 17.872 152.06 17.936C149.98 18 147.884 18.448 145.772 19.28C143.692 20.08 141.692 21.136 139.772 22.448C137.852 23.76 136.092 25.248 134.492 26.912C132.892 28.544 131.548 30.224 130.46 31.952C129.948 32.784 129.42 33.856 128.876 35.168C128.364 36.448 127.916 37.84 127.532 39.344C127.18 40.816 127.004 42.256 127.004 43.664C127.004 45.296 127.324 46.752 127.964 48.032C128.604 49.312 129.74 50.176 131.372 50.624C131.788 50.752 132.316 50.816 132.956 50.816C133.756 50.816 134.636 50.688 135.596 50.432C136.588 50.208 137.612 49.84 138.668 49.328C140.396 48.496 142.108 47.376 143.804 45.968C145.532 44.528 147.164 42.928 148.7 41.168C150.236 39.408 151.564 37.632 152.684 35.84C153.324 34.848 153.82 34.352 154.172 34.352C155.132 32.944 156.14 31.68 157.196 30.56C158.284 29.44 159.436 28.56 160.652 27.92C161.676 27.408 162.684 27.152 163.676 27.152C164.124 27.152 164.556 27.2 164.972 27.296C165.132 27.328 165.18 27.424 165.116 27.584C165.052 27.712 164.956 27.76 164.828 27.728C164.54 27.632 164.236 27.584 163.916 27.584C163.148 27.584 162.316 27.856 161.42 28.4C160.524 28.944 159.628 29.76 158.732 30.848C157.324 32.512 156.092 34.352 155.036 36.368C154.012 38.352 153.052 40.448 152.156 42.656C151.292 44.832 150.364 47.024 149.372 49.232C148.412 51.408 147.276 53.52 145.964 55.568C144.78 57.392 143.436 59.024 141.932 60.464C140.428 61.904 138.732 62.992 136.844 63.728C135.756 64.144 134.508 64.352 133.1 64.352C132.524 64.352 131.964 64.304 131.42 64.208C130.908 64.112 130.476 63.968 130.124 63.776Z" fill="white"/>
<path d="M186.604 12.232L189.16 6.184H191.824L188.98 12.232H186.604ZM180.52 37V13.816H196.18V16.156H183.472V24.256H194.884V26.56H183.472V34.696H196.18V37H180.52ZM212.381 37L203.561 13.816H206.621L214.073 34.012L221.561 13.816H224.621L215.837 37H212.381ZM238.803 12.232L241.359 6.184H244.023L241.179 12.232H238.803ZM232.719 37V13.816H248.379V16.156H235.671V24.256H247.083V26.56H235.671V34.696H248.379V37H232.719ZM257.007 37V13.816H259.671L272.883 32.464V13.816H275.835V37H273.135L259.959 18.388V37H257.007ZM285.198 37V13.816H300.858V16.156H288.15V24.256H299.562V26.56H288.15V34.696H300.858V37H285.198Z" fill="white"/>
<path d="M180.52 67V43.816H183.688L191.536 59.908L199.384 43.816H202.552V67H199.636V48.424L192.544 62.968H190.564L183.436 48.424V67H180.52ZM211.91 67V43.816H227.57V46.156H214.862V54.256H226.274V56.56H214.862V64.696H227.57V67H211.91ZM236.199 67V43.816H238.863L252.075 62.464V43.816H255.027V67H252.327L239.151 48.388V67H236.199ZM270.654 67V46.156H262.95V43.816H281.31V46.156H273.606V67H270.654ZM294.604 67.36C291.724 67.36 289.396 67 287.62 66.28V63.652C288.628 64.036 289.696 64.336 290.824 64.552C291.976 64.744 293.152 64.84 294.352 64.84C296.416 64.84 297.964 64.564 298.996 64.012C300.028 63.436 300.544 62.416 300.544 60.952C300.544 60.04 300.328 59.32 299.896 58.792C299.488 58.24 298.804 57.784 297.844 57.424C296.884 57.04 295.6 56.656 293.992 56.272C291.448 55.648 289.66 54.844 288.628 53.86C287.596 52.852 287.08 51.508 287.08 49.828C287.08 47.86 287.788 46.312 289.204 45.184C290.62 44.032 292.78 43.456 295.684 43.456C297.028 43.456 298.276 43.552 299.428 43.744C300.58 43.936 301.468 44.14 302.092 44.356V46.948C301.228 46.636 300.292 46.396 299.284 46.228C298.276 46.06 297.232 45.976 296.152 45.976C294.184 45.976 292.672 46.264 291.616 46.84C290.56 47.416 290.032 48.412 290.032 49.828C290.032 50.62 290.212 51.268 290.572 51.772C290.956 52.252 291.592 52.672 292.48 53.032C293.368 53.368 294.604 53.728 296.188 54.112C298.084 54.568 299.56 55.12 300.616 55.768C301.672 56.392 302.416 57.136 302.848 58C303.28 58.864 303.496 59.848 303.496 60.952C303.496 62.992 302.752 64.576 301.264 65.704C299.776 66.808 297.556 67.36 294.604 67.36Z" fill="white"/>
</svg>
